<svg width="95" height="38" viewBox="0 0 95 38" fill="none" xmlns="http://www.w3.org/2000/svg">
<path d="M14.2992 6.9H10.9992C9.99922 6.9 9.19922 6.1 9.19922 5.1V1.8C9.19922 0.8 9.99922 0 10.9992 0H14.2992C15.2992 0 16.0992 0.8 16.0992 1.8V5.1C16.0992 6.1 15.2992 6.9 14.2992 6.9Z" fill="#0D6EB7"/>
<path d="M5.7 14.3001H2C0.9 14.3001 0 13.4001 0 12.3001V8.6001C0 7.5001 0.9 6.6001 2 6.6001H5.7C6.8 6.6001 7.7 7.5001 7.7 8.6001V12.3001C7.7 13.4001 6.8 14.3001 5.7 14.3001Z" fill="#72217B"/>
<path d="M5.39844 21.9998H3.09843C2.39843 21.9998 1.89844 21.4998 1.89844 20.7998V18.4998C1.89844 17.7998 2.49843 17.2998 3.09843 17.2998H5.39844C6.09844 17.2998 6.59843 17.7998 6.59843 18.4998V20.7998C6.59843 21.4998 5.99844 21.9998 5.39844 21.9998Z" fill="#B12384"/>
<path d="M11.4984 29.2002H8.79845C7.99845 29.2002 7.39844 28.6002 7.39844 27.8002V25.1002C7.39844 24.3002 7.99845 23.7002 8.79845 23.7002H11.4984C12.2984 23.7002 12.8984 24.3002 12.8984 25.1002V27.8002C12.8984 28.6002 12.2984 29.2002 11.4984 29.2002Z" fill="#D82B80"/>
<path d="M21.4 8.1999H19.5C18.9 8.1999 18.5 7.6999 18.5 7.1999V5.3999C18.5 4.7999 18.9 4.3999 19.5 4.3999H21.4C22 4.3999 22.4 4.8999 22.4 5.3999V7.2999C22.4 7.7999 21.9 8.1999 21.4 8.1999Z" fill="#D82B80"/>
<path d="M61.0016 23.3999C60.5016 23.3999 60.1016 23.7999 60.1016 24.2999C60.1016 24.7999 60.5016 25.1999 61.0016 25.1999C61.5016 25.1999 61.9016 24.7999 61.9016 24.2999C61.8016 23.7999 61.4016 23.3999 61.0016 23.3999ZM39.7016 26.0999C38.6016 26.0999 37.6016 26.4999 36.9016 27.1999V26.8999C36.9016 26.4999 36.6016 26.1999 36.2016 26.1999C35.9016 26.1999 35.5016 26.4999 35.5016 26.8999V37.1999C35.5016 37.5999 35.8016 37.8999 36.2016 37.8999C36.6016 37.8999 36.9016 37.5999 36.9016 37.1999V33.5999C37.6016 34.2999 38.6016 34.6999 39.7016 34.6999C42.1016 34.6999 44.0016 32.7999 44.0016 30.4999C44.0016 27.9999 42.1016 26.0999 39.7016 26.0999ZM39.7016 33.1999C38.1016 33.1999 36.9016 31.8999 36.9016 30.3999C36.9016 28.7999 38.2016 27.4999 39.7016 27.4999C41.3016 27.4999 42.6016 28.7999 42.6016 30.3999C42.6016 31.9999 41.3016 33.1999 39.7016 33.1999ZM34.4016 26.8999C34.4016 26.6999 34.3016 26.3999 34.1016 26.2999C34.0016 26.1999 33.9016 26.1999 33.7016 26.1999C33.5016 26.1999 33.2016 26.2999 33.1016 26.4999L31.5016 29.0999L29.9016 26.4999C29.8016 26.2999 29.5016 26.1999 29.3016 26.1999C29.2016 26.1999 29.1016 26.1999 28.9016 26.2999C28.7016 26.3999 28.6016 26.6999 28.6016 26.8999C28.6016 26.9999 28.6016 27.0999 28.7016 27.1999L30.7016 30.2999L28.7016 33.3999C28.6016 33.4999 28.6016 33.5999 28.6016 33.6999C28.6016 33.8999 28.7016 34.1999 28.9016 34.2999C29.0016 34.3999 29.2016 34.3999 29.3016 34.3999C29.5016 34.3999 29.7016 34.2999 29.9016 34.0999L31.5016 31.5999L33.1016 34.0999C33.2016 34.2999 33.4016 34.3999 33.7016 34.3999C33.8016 34.3999 34.0016 34.3999 34.1016 34.2999C34.3016 34.1999 34.4016 33.8999 34.4016 33.6999C34.4016 33.5999 34.4016 33.4999 34.3016 33.3999L32.3016 30.2999L34.3016 27.1999C34.3016 27.1999 34.4016 26.9999 34.4016 26.8999ZM23.9016 26.0999C21.5016 26.0999 19.6016 27.9999 19.6016 30.2999C19.6016 32.6999 21.5016 34.5999 23.9016 34.5999C25.0016 34.5999 26.1016 34.1999 26.9016 33.3999C27.0016 33.2999 27.1016 33.0999 27.1016 32.8999C27.1016 32.4999 26.8016 32.1999 26.4016 32.1999C26.2016 32.1999 26.0016 32.2999 25.8016 32.4999C25.3016 32.9999 24.6016 33.1999 23.9016 33.1999C22.5016 33.1999 21.3016 32.1999 21.1016 30.8999H27.5016C27.5016 30.8999 27.5016 30.8999 27.6016 30.8999C27.9016 30.7999 28.2016 30.4999 28.2016 30.1999C28.1016 27.9999 26.2016 26.0999 23.9016 26.0999ZM21.2016 29.4999C21.6016 28.3999 22.6016 27.4999 23.9016 27.4999C25.2016 27.4999 26.2016 28.2999 26.6016 29.4999H21.2016ZM61.0016 26.1999C60.6016 26.1999 60.3016 26.4999 60.3016 26.8999V33.8999C60.3016 34.2999 60.6016 34.5999 61.0016 34.5999C61.3016 34.5999 61.7016 34.2999 61.7016 33.8999V26.8999C61.7016 26.4999 61.3016 26.1999 61.0016 26.1999ZM49.2016 26.0999C46.8016 26.0999 44.9016 27.9999 44.9016 30.2999C44.9016 32.6999 46.8016 34.5999 49.2016 34.5999C50.3016 34.5999 51.4016 34.1999 52.2016 33.3999C52.3016 33.2999 52.4016 33.0999 52.4016 32.8999C52.4016 32.4999 52.1016 32.1999 51.7016 32.1999C51.5016 32.1999 51.3016 32.2999 51.1016 32.4999C50.6016 32.9999 49.9016 33.1999 49.2016 33.1999C47.8016 33.1999 46.6016 32.1999 46.4016 30.8999H52.8016C52.8016 30.8999 52.8016 30.8999 52.9016 30.8999C53.2016 30.7999 53.5016 30.4999 53.5016 30.1999C53.4016 27.9999 51.5016 26.0999 49.2016 26.0999ZM46.5016 29.4999C46.9016 28.3999 47.9016 27.4999 49.2016 27.4999C50.5016 27.4999 51.5016 28.2999 51.9016 29.4999H46.5016ZM70.6016 26.1999C70.2016 26.1999 69.9016 26.4999 69.9016 26.8999V27.1999C69.1016 26.4999 68.2016 26.0999 67.1016 26.0999C64.7016 26.0999 62.8016 27.9999 62.8016 30.2999C62.8016 32.6999 64.7016 34.5999 67.1016 34.5999C68.2016 34.5999 69.2016 34.1999 69.9016 33.4999V33.7999C69.9016 34.1999 70.2016 34.4999 70.6016 34.4999C70.9016 34.4999 71.3016 34.1999 71.3016 33.7999V26.7999C71.3016 26.4999 71.0016 26.1999 70.6016 26.1999ZM67.1016 33.1999C65.5016 33.1999 64.2016 31.8999 64.2016 30.2999C64.2016 28.6999 65.5016 27.4999 67.1016 27.4999C68.7016 27.4999 69.9016 28.7999 69.9016 30.2999C69.9016 31.8999 68.7016 33.1999 67.1016 33.1999ZM76.2016 26.0999C75.4016 26.0999 74.6016 26.2999 74.0016 26.7999C74.0016 26.4999 73.6016 26.1999 73.3016 26.1999C72.9016 26.1999 72.6016 26.4999 72.6016 26.8999V33.8999C72.6016 34.2999 72.9016 34.5999 73.3016 34.5999C73.6016 34.5999 74.0016 34.2999 74.0016 33.8999V29.5999C74.0016 27.9999 75.1016 27.4999 76.2016 27.4999C77.4016 27.4999 78.4016 28.4999 78.4016 29.6999V33.8999C78.4016 34.2999 78.7016 34.5999 79.1016 34.5999C79.4016 34.5999 79.8016 34.2999 79.8016 33.8999V29.4999C79.9016 27.5999 78.2016 26.0999 76.2016 26.0999ZM58.2016 26.0999C57.4016 26.0999 56.7016 26.3999 56.1016 26.7999C56.1016 26.4999 55.7016 26.1999 55.4016 26.1999C55.0016 26.1999 54.7016 26.4999 54.7016 26.8999V33.8999C54.7016 34.2999 55.0016 34.5999 55.4016 34.5999C55.7016 34.5999 56.1016 34.2999 56.1016 33.8999V29.5999C56.1016 27.9999 57.1016 27.5999 58.2016 27.4999C58.6016 27.4999 59.0016 27.1999 59.0016 26.7999C58.9016 26.4999 58.6016 26.0999 58.2016 26.0999Z" fill="#004691"/>
<path d="M17.9016 9.7001C17.5016 9.7001 17.2016 10.0001 17.2016 10.4001V14.0001C16.5016 13.3001 15.5016 12.9001 14.4016 12.9001C12.0016 12.9001 10.1016 14.8001 10.1016 17.1001C10.1016 19.5001 12.0016 21.4001 14.4016 21.4001C15.5016 21.4001 16.5016 21.0001 17.2016 20.3001V20.6001C17.2016 21.0001 17.5016 21.3001 17.9016 21.3001C18.2016 21.3001 18.6016 21.0001 18.6016 20.6001V10.4001C18.6016 10.0001 18.3016 9.7001 17.9016 9.7001ZM14.4016 20.0001C12.8016 20.0001 11.6016 18.8001 11.6016 17.2001C11.6016 15.6001 12.8016 14.4001 14.4016 14.4001C16.0016 14.4001 17.2016 15.6001 17.2016 17.2001C17.2016 18.8001 16.0016 20.0001 14.4016 20.0001ZM34.7016 13.2001H32.9016V11.4001C32.9016 11.0001 32.6016 10.7001 32.2016 10.7001C31.8016 10.7001 31.5016 11.0001 31.5016 11.4001V13.2001H29.7016C29.4016 13.2001 29.1016 13.5001 29.1016 13.8001C29.1016 14.1001 29.4016 14.4001 29.7016 14.4001H31.5016V20.6001C31.5016 21.0001 31.8016 21.3001 32.2016 21.3001C32.5016 21.3001 32.9016 21.0001 32.9016 20.6001V14.4001H34.7016C35.0016 14.4001 35.3016 14.1001 35.3016 13.8001C35.3016 13.5001 35.0016 13.2001 34.7016 13.2001ZM43.1016 13.0001C42.7016 13.0001 42.4016 13.3001 42.4016 13.7001V14.0001C41.6016 13.3001 40.7016 12.9001 39.6016 12.9001C37.2016 12.9001 35.3016 14.8001 35.3016 17.1001C35.3016 19.5001 37.2016 21.4001 39.6016 21.4001C40.7016 21.4001 41.7016 21.0001 42.4016 20.3001V20.6001C42.4016 21.0001 42.7016 21.3001 43.1016 21.3001C43.4016 21.3001 43.8016 21.0001 43.8016 20.6001V13.6001C43.8016 13.3001 43.5016 13.0001 43.1016 13.0001ZM39.6016 20.0001C38.0016 20.0001 36.8016 18.8001 36.8016 17.2001C36.8016 15.6001 38.0016 14.4001 39.6016 14.4001C41.2016 14.4001 42.4016 15.6001 42.4016 17.2001C42.4016 18.8001 41.2016 20.0001 39.6016 20.0001ZM52.3016 18.1001C52.0016 18.1001 51.8016 18.3001 51.6016 18.6001C51.2016 19.5001 50.2016 20.0001 49.2016 20.0001C47.6016 20.0001 46.4016 18.8001 46.4016 17.2001C46.4016 15.6001 47.6016 14.4001 49.2016 14.4001C50.2016 14.4001 51.0016 14.8001 51.5016 15.6001C51.6016 15.8001 51.9016 16.0001 52.1016 16.0001C52.5016 16.0001 52.8016 15.7001 52.8016 15.3001C52.8016 15.1001 52.7016 15.0001 52.6016 14.8001C51.8016 13.8001 50.6016 13.1001 49.2016 13.1001C46.8016 13.1001 44.9016 15.0001 44.9016 17.3001C44.9016 19.7001 46.8016 21.6001 49.2016 21.6001C50.9016 21.6001 52.3016 20.7001 53.0016 19.3001C53.0016 19.2001 53.0016 19.1001 53.0016 19.1001C53.0016 18.5001 52.7016 18.1001 52.3016 18.1001ZM57.6016 12.9001C56.8016 12.9001 56.1016 13.2001 55.5016 13.6001C55.5016 13.3001 55.1016 13.0001 54.8016 13.0001C54.4016 13.0001 54.1016 13.3001 54.1016 13.7001V20.7001C54.1016 21.1001 54.4016 21.4001 54.8016 21.4001C55.1016 21.4001 55.5016 21.1001 55.5016 20.7001V16.4001C55.5016 14.8001 56.5016 14.4001 57.6016 14.3001C58.0016 14.3001 58.4016 14.0001 58.4016 13.6001C58.4016 13.3001 58.1016 12.9001 57.6016 12.9001ZM62.5016 12.9001C60.1016 12.9001 58.2016 14.8001 58.2016 17.1001C58.2016 19.5001 60.1016 21.4001 62.5016 21.4001C63.6016 21.4001 64.7016 21.0001 65.4016 20.2001C65.5016 20.1001 65.6016 19.9001 65.6016 19.7001C65.6016 19.3001 65.3016 19.0001 64.9016 19.0001C64.7016 19.0001 64.5016 19.1001 64.3016 19.3001C63.8016 19.8001 63.1016 20.0001 62.4016 20.0001C61.0016 20.0001 59.8016 19.0001 59.6016 17.7001H65.9016C66.2016 17.7001 66.6016 17.4001 66.6016 16.9001C66.7016 14.8001 64.8016 12.9001 62.5016 12.9001ZM59.8016 16.3001C60.2016 15.2001 61.2016 14.3001 62.5016 14.3001C63.8016 14.3001 64.8016 15.1001 65.2016 16.3001H59.8016ZM75.4016 9.7001C75.0016 9.7001 74.7016 10.0001 74.7016 10.4001V14.0001C74.0016 13.3001 73.0016 12.9001 71.9016 12.9001C69.5016 12.9001 67.6016 14.8001 67.6016 17.1001C67.6016 19.5001 69.5016 21.4001 71.9016 21.4001C73.0016 21.4001 74.0016 21.0001 74.7016 20.3001V20.6001C74.7016 21.0001 75.0016 21.3001 75.4016 21.3001C75.7016 21.3001 76.1016 21.0001 76.1016 20.6001V10.4001C76.1016 10.0001 75.8016 9.7001 75.4016 9.7001ZM71.9016 20.0001C70.3016 20.0001 69.1016 18.8001 69.1016 17.2001C69.1016 15.6001 70.3016 14.4001 71.9016 14.4001C73.5016 14.4001 74.7016 15.6001 74.7016 17.2001C74.7016 18.8001 73.5016 20.0001 71.9016 20.0001ZM85.7016 13.2001H83.9016V11.4001C83.9016 11.0001 83.6016 10.7001 83.2016 10.7001C82.8016 10.7001 82.5016 11.0001 82.5016 11.4001V13.2001H80.7016C80.4016 13.2001 80.1016 13.5001 80.1016 13.8001C80.1016 14.1001 80.4016 14.4001 80.7016 14.4001H82.5016V20.6001C82.5016 21.0001 82.8016 21.3001 83.2016 21.3001C83.5016 21.3001 83.9016 21.0001 83.9016 20.6001V14.4001H85.7016C86.0016 14.4001 86.3016 14.1001 86.3016 13.8001C86.2016 13.5001 86.0016 13.2001 85.7016 13.2001ZM90.4016 12.9001C88.0016 12.9001 86.1016 14.8001 86.1016 17.1001C86.1016 19.5001 88.0016 21.4001 90.4016 21.4001C92.7016 21.4001 94.6016 19.5001 94.6016 17.1001C94.6016 14.8001 92.8016 12.9001 90.4016 12.9001ZM90.4016 20.0001C88.8016 20.0001 87.6016 18.8001 87.6016 17.2001C87.6016 15.6001 88.8016 14.4001 90.4016 14.4001C92.0016 14.4001 93.2016 15.6001 93.2016 17.2001C93.3016 18.8001 92.0016 20.0001 90.4016 20.0001ZM60.5016 11.4001C60.7016 11.8001 60.9016 11.9001 61.1016 11.9001C61.2016 11.9001 61.3016 11.9001 61.4016 11.8001L63.9016 10.8001C64.3016 10.6001 64.4016 10.3001 64.4016 10.2001C64.4016 10.1001 64.4016 10.0001 64.3016 9.9001C64.2016 9.8001 64.1016 9.6001 63.7016 9.6001C63.6016 9.6001 63.4016 9.6001 63.3016 9.7001L60.8016 10.7001C60.5016 10.8001 60.3016 11.0001 60.3016 11.3001C60.5016 11.2001 60.5016 11.3001 60.5016 11.4001ZM78.2016 10.3001C77.7016 10.3001 77.3016 10.7001 77.3016 11.2001C77.3016 11.7001 77.7016 12.1001 78.2016 12.1001C78.7016 12.1001 79.1016 11.7001 79.1016 11.2001C79.1016 10.6001 78.7016 10.3001 78.2016 10.3001ZM78.2016 13.0001C77.8016 13.0001 77.5016 13.3001 77.5016 13.7001V20.7001C77.5016 21.1001 77.8016 21.4001 78.2016 21.4001C78.5016 21.4001 78.9016 21.1001 78.9016 20.7001V13.7001C78.9016 13.3001 78.6016 13.0001 78.2016 13.0001ZM27.5016 13.0001C27.1016 13.0001 26.8016 13.3001 26.8016 13.7001V14.0001C26.0016 13.3001 25.1016 12.9001 24.0016 12.9001C21.6016 12.9001 19.7016 14.8001 19.7016 17.1001C19.7016 19.5001 21.6016 21.4001 24.0016 21.4001C25.1016 21.4001 26.1016 21.0001 26.8016 20.3001V20.6001C26.8016 21.0001 27.1016 21.3001 27.5016 21.3001C27.8016 21.3001 28.2016 21.0001 28.2016 20.6001V13.6001C28.2016 13.3001 27.8016 13.0001 27.5016 13.0001ZM23.9016 20.0001C22.3016 20.0001 21.1016 18.8001 21.1016 17.2001C21.1016 15.6001 22.3016 14.4001 23.9016 14.4001C25.5016 14.4001 26.7016 15.6001 26.7016 17.2001C26.8016 18.8001 25.5016 20.0001 23.9016 20.0001Z" fill="#004691"/>
<path d="M81.6008 33C81.2008 33 80.8008 33.4 80.8008 33.8C80.8008 34.2 81.2008 34.6 81.6008 34.6C82.0008 34.6 82.4008 34.3 82.4008 33.8C82.4008 33.4 82.0008 33 81.6008 33ZM82.2008 33.8C82.2008 34.1 81.9008 34.4 81.5008 34.4C81.1008 34.4 80.9008 34.1 80.9008 33.8C80.9008 33.5 81.2008 33.2 81.5008 33.2C81.9008 33.2 82.2008 33.5 82.2008 33.8Z" fill="#004691"/>
<path d="M81.7008 33.8999C81.8008 33.7999 81.8008 33.7999 81.8008 33.6999C81.8008 33.4999 81.7008 33.3999 81.5008 33.3999H81.4008C81.3008 33.3999 81.3008 33.3999 81.3008 33.4999V34.1999C81.3008 34.1999 81.3008 34.2999 81.4008 34.2999C81.4008 34.2999 81.5008 34.2999 81.5008 34.1999V33.8999H81.6008L81.7008 34.1999C81.7008 34.1999 81.7008 34.1999 81.8008 34.1999C81.8008 34.1999 81.8008 34.1999 81.8008 34.0999L81.7008 33.8999ZM81.7008 33.5999C81.7008 33.5999 81.7008 33.6999 81.6008 33.6999H81.5008V33.3999H81.6008C81.7008 33.4999 81.7008 33.5999 81.7008 33.5999Z" fill="#004691"/>
</svg>
